<mxfile host="app.diagrams.net" agent="Mozilla/5.0 (Macintosh; Intel Mac OS X 10_15_7) AppleWebKit/537.36 (KHTML, like Gecko) Chrome/129.0.0.0 Safari/537.36" version="25.0.1">
  <diagram name="Page-1" id="O9yYPY4qAZch_6_0QE-m">
    <mxGraphModel dx="954" dy="639" grid="1" gridSize="10" guides="1" tooltips="1" connect="1" arrows="1" fold="1" page="1" pageScale="1" pageWidth="827" pageHeight="1169" math="0" shadow="0">
      <root>
        <mxCell id="0" />
        <mxCell id="1" parent="0" />
        <mxCell id="RyT3h0q8uJ0lcJPvg5cY-3" style="edgeStyle=orthogonalEdgeStyle;rounded=0;orthogonalLoop=1;jettySize=auto;html=1;exitX=0.5;exitY=1;exitDx=0;exitDy=0;" edge="1" parent="1" source="RyT3h0q8uJ0lcJPvg5cY-1" target="RyT3h0q8uJ0lcJPvg5cY-2">
          <mxGeometry relative="1" as="geometry" />
        </mxCell>
        <mxCell id="RyT3h0q8uJ0lcJPvg5cY-1" value="Start" style="rounded=1;whiteSpace=wrap;html=1;" vertex="1" parent="1">
          <mxGeometry x="110" y="60" width="120" height="60" as="geometry" />
        </mxCell>
        <mxCell id="RyT3h0q8uJ0lcJPvg5cY-4" style="edgeStyle=orthogonalEdgeStyle;rounded=0;orthogonalLoop=1;jettySize=auto;html=1;exitX=0.5;exitY=1;exitDx=0;exitDy=0;" edge="1" parent="1" source="RyT3h0q8uJ0lcJPvg5cY-2" target="RyT3h0q8uJ0lcJPvg5cY-5">
          <mxGeometry relative="1" as="geometry">
            <mxPoint x="170" y="320" as="targetPoint" />
          </mxGeometry>
        </mxCell>
        <mxCell id="RyT3h0q8uJ0lcJPvg5cY-2" value="Main()" style="rounded=0;whiteSpace=wrap;html=1;" vertex="1" parent="1">
          <mxGeometry x="110" y="200" width="120" height="60" as="geometry" />
        </mxCell>
        <mxCell id="RyT3h0q8uJ0lcJPvg5cY-7" value="" style="edgeStyle=orthogonalEdgeStyle;rounded=0;orthogonalLoop=1;jettySize=auto;html=1;" edge="1" parent="1" source="RyT3h0q8uJ0lcJPvg5cY-5" target="RyT3h0q8uJ0lcJPvg5cY-6">
          <mxGeometry relative="1" as="geometry" />
        </mxCell>
        <mxCell id="RyT3h0q8uJ0lcJPvg5cY-5" value="loop" style="rounded=0;whiteSpace=wrap;html=1;" vertex="1" parent="1">
          <mxGeometry x="110" y="290" width="120" height="60" as="geometry" />
        </mxCell>
        <mxCell id="RyT3h0q8uJ0lcJPvg5cY-6" value="loop" style="rounded=0;whiteSpace=wrap;html=1;" vertex="1" parent="1">
          <mxGeometry x="110" y="430" width="120" height="60" as="geometry" />
        </mxCell>
      </root>
    </mxGraphModel>
  </diagram>
</mxfile>
